<svg xmlns="http://www.w3.org/2000/svg" width="176" height="47.12" viewBox="0 0 176 47.12">
  <g>
    <path d="M9.424,0H29.45a9.424,9.424,0,0,1,9.424,9.424V37.7a9.424,9.424,0,0,1-9.424,9.42H9.424A9.424,9.424,0,0,1,0,37.7V9.424A9.424,9.424,0,0,1,9.424,0Z" fill="#fff"/>
    <path d="M9.424,3A6.431,6.431,0,0,0,3,9.424V37.7a6.431,6.431,0,0,0,6.424,6.42H29.45a6.431,6.431,0,0,0,6.424-6.42V9.424A6.431,6.431,0,0,0,29.45,3H9.424m0-3H29.45a9.424,9.424,0,0,1,9.424,9.424V37.7a9.424,9.424,0,0,1-9.424,9.42H9.424A9.424,9.424,0,0,1,0,37.7V9.424A9.424,9.424,0,0,1,9.424,0Z" fill="#505050"/>
    <g transform="translate(9.766 21.072)">
      <circle cx="2.612" cy="2.612" r="2.612" fill="#505050"/>
      <circle cx="2.612" cy="2.612" r="2.612" transform="translate(14.8 0)" fill="#505050"/>
      <g transform="translate(1.558 8.121)">
        <path d="M128.6,1794.66h16.989s1,9.125-8.437,9.051S128.6,1794.66,128.6,1794.66Z" transform="translate(-128.58 -1794.658)" fill="#505050"/>
        <path d="M0,0H13.058a2.176,2.176,0,0,1-2.176,2.176H2.176A2.176,2.176,0,0,1,0,0Z" transform="translate(1.991)" fill="#878787"/>
      </g>
      <path d="M5.767,4.766A8.939,8.939,0,0,1,0,2.984,6.275,6.275,0,0,1,5.647,0a6.2,6.2,0,0,1,5.731,3.156,8.687,8.687,0,0,1-5.5,1.611Z" transform="translate(4.365 12.406)" fill="#686868"/>
    </g>
  </g>
  <text x="50" y="31" fill="#505050" font-family="Inter, Arial, sans-serif" font-size="31" font-weight="700" letter-spacing="0.2">TutPro</text>
</svg>
